<svg width="24" height="24" viewBox="0 0 24 24" fill="none" xmlns="http://www.w3.org/2000/svg">
<path d="M6.65375 19.5C6.33325 19.5 6.06083 19.3878 5.8365 19.1635C5.61217 18.9392 5.5 18.6667 5.5 18.3462V15.6538C5.5 15.3333 5.61217 15.0608 5.8365 14.8365C6.06083 14.6122 6.33325 14.5 6.65375 14.5C6.97425 14.5 7.24675 14.6122 7.47125 14.8365C7.69558 15.0608 7.80775 15.3333 7.80775 15.6538V18.3462C7.80775 18.6667 7.69558 18.9392 7.47125 19.1635C7.24675 19.3878 6.97425 19.5 6.65375 19.5ZM12.5578 19.5C12.2373 19.5 11.9648 19.3878 11.7405 19.1635C11.5162 18.9392 11.404 18.6667 11.404 18.3462V10.6538C11.404 10.3333 11.5162 10.0608 11.7405 9.8365C11.9648 9.61217 12.2373 9.5 12.5578 9.5C12.8783 9.5 13.1507 9.61217 13.375 9.8365C13.5993 10.0608 13.7115 10.3333 13.7115 10.6538V18.3462C13.7115 18.6667 13.5993 18.9392 13.375 19.1635C13.1507 19.3878 12.8783 19.5 12.5578 19.5ZM18.3462 19.5C18.0257 19.5 17.7533 19.3878 17.5288 19.1635C17.3044 18.9392 17.1923 18.6667 17.1923 18.3462V5.65375C17.1923 5.33325 17.3044 5.06083 17.5288 4.8365C17.7533 4.61217 18.0257 4.5 18.3462 4.5C18.6667 4.5 18.9392 4.61217 19.1635 4.8365C19.3878 5.06083 19.5 5.33325 19.5 5.65375V18.3462C19.5 18.6667 19.3878 18.9392 19.1635 19.1635C18.9392 19.3878 18.6667 19.5 18.3462 19.5Z" fill="#B0ADB6"/>
<path d="M6.65375 19.5C6.33325 19.5 6.06083 19.3878 5.8365 19.1635C5.61217 18.9392 5.5 18.6668 5.5 18.3463V15.6537C5.5 15.3332 5.61217 15.0608 5.8365 14.8365C6.06083 14.6122 6.33325 14.5 6.65375 14.5C6.97425 14.5 7.24675 14.6122 7.47125 14.8365C7.69558 15.0608 7.80775 15.3332 7.80775 15.6537V18.3463C7.80775 18.6668 7.69558 18.9392 7.47125 19.1635C7.24675 19.3878 6.97425 19.5 6.65375 19.5Z" fill="#B0ADB6"/>
</svg>
